<svg width="40" height="40" viewBox="0 0 24 24" fill="none" xmlns="http://www.w3.org/2000/svg">
<g clip-path="url(#clip0_3288_1605)">
<path fill-rule="evenodd" clip-rule="evenodd" d="M12 22C17.5228 22 22 17.5228 22 12C22 6.47715 17.5228 2 12 2C6.47715 2 2 6.47715 2 12C2 17.5228 6.47715 22 12 22ZM8.92251 9V10.0566C8.92251 10.0566 9.42326 10.0332 9.42326 10.9646V13.6661H10.479V10.7151C10.479 10.7151 10.5232 9 8.92251 9ZM7.02719 10.4113C6.67463 10.4372 6.34356 10.5906 6.0958 10.8427V9.10265H5V13.6661H6.10748V13.3089C6.10748 13.3089 6.36871 13.7796 7.02552 13.7796C7.02552 13.7796 8.56948 13.7229 8.56948 12.0771C8.57115 12.0804 8.5144 10.4113 7.02719 10.4113ZM6.786 12.8199C6.64661 12.82 6.51031 12.7788 6.39435 12.7015C6.27839 12.6242 6.18797 12.5142 6.13456 12.3854C6.08114 12.2567 6.06712 12.115 6.09427 11.9783C6.12142 11.8415 6.18853 11.716 6.28709 11.6174C6.38565 11.5188 6.51123 11.4517 6.64795 11.4246C6.78466 11.3974 6.92636 11.4115 7.0551 11.4649C7.18385 11.5183 7.29385 11.6087 7.37118 11.7247C7.44852 11.8406 7.48971 11.9769 7.48954 12.1163C7.48844 12.3022 7.41386 12.4802 7.28206 12.6114C7.15026 12.7426 6.97194 12.8163 6.786 12.8165V12.8199ZM11.2501 12.113C11.2501 10.4221 13.0603 10.4221 13.0603 10.4221C14.9715 10.4221 14.9114 12.113 14.9114 12.113C14.9114 13.7821 13.0603 13.7821 13.0603 13.7821C11.1917 13.7821 11.2501 12.113 11.2501 12.113ZM12.6687 12.6982C12.7847 12.7755 12.9209 12.8167 13.0603 12.8165C13.2469 12.8163 13.4257 12.7421 13.5576 12.6102C13.6895 12.4783 13.7637 12.2995 13.7639 12.113C13.764 11.9736 13.7229 11.8373 13.6455 11.7213C13.5682 11.6054 13.4582 11.5149 13.3294 11.4615C13.2007 11.4081 13.059 11.3941 12.9223 11.4212C12.7856 11.4484 12.66 11.5155 12.5614 11.6141C12.4629 11.7126 12.3958 11.8382 12.3686 11.9749C12.3415 12.1116 12.3555 12.2533 12.4089 12.3821C12.4623 12.5108 12.5527 12.6208 12.6687 12.6982ZM17.9342 10.5331V10.8394C17.8207 10.7074 17.6798 10.6016 17.5212 10.5296C17.3627 10.4575 17.1903 10.4208 17.0162 10.4221C17.0162 10.4221 15.4664 10.357 15.4664 12.1013C15.4664 12.1013 15.4497 13.7262 16.9736 13.7262C16.9736 13.7262 17.5954 13.7512 17.9359 13.3089V13.5643C17.9359 13.5643 18.0127 14.3647 17.2374 14.3647H16.9736V15.3353H17.3993C17.3993 15.3353 19 15.352 19 13.6236V10.5356L17.9342 10.5331ZM17.2791 12.8165C17.1398 12.8165 17.0035 12.7752 16.8877 12.6977C16.7718 12.6203 16.6815 12.5103 16.6283 12.3815C16.575 12.2527 16.5611 12.1111 16.5883 11.9744C16.6156 11.8377 16.6827 11.7122 16.7813 11.6138C16.8799 11.5153 17.0055 11.4483 17.1422 11.4212C17.2789 11.3941 17.4205 11.4082 17.5492 11.4616C17.6779 11.515 17.7879 11.6055 17.8652 11.7214C17.9425 11.8374 17.9837 11.9736 17.9835 12.113C17.9835 12.2054 17.9653 12.297 17.9298 12.3824C17.8944 12.4678 17.8425 12.5454 17.7771 12.6107C17.7117 12.6761 17.634 12.7279 17.5486 12.7632C17.4631 12.7985 17.3716 12.8166 17.2791 12.8165Z" fill="#949494"/>
</g>
<defs>
<clipPath id="clip0_3288_1605">
<rect width="40" height="40" fill="white"/>
</clipPath>
</defs>
</svg>
