<svg width="40" height="40" viewBox="0 0 24 24" fill="none" xmlns="http://www.w3.org/2000/svg">
<g clip-path="url(#clip0_2723_1400)">
<path fill-rule="evenodd" clip-rule="evenodd" d="M12 22C17.5228 22 22 17.5228 22 12C22 6.47715 17.5228 2 12 2C6.47715 2 2 6.47715 2 12C2 17.5228 6.47715 22 12 22ZM17.677 10.0975C17.677 9.97711 17.677 9.85776 17.6691 9.73842C18.1909 9.3452 18.6419 8.85848 19 8.29971C18.5136 8.52465 17.9971 8.67204 17.4684 8.73693C18.0251 8.38991 18.4418 7.84379 18.6409 7.20088C18.117 7.52426 17.5445 7.7525 16.9471 7.87514C15.9374 6.75706 14.2479 6.70316 13.1736 7.7547C12.4807 8.4328 12.1871 9.44364 12.402 10.4083C10.2573 10.2966 8.25935 9.2418 6.90522 7.50666C6.19752 8.77598 6.55876 10.3995 7.73069 11.2151C7.30607 11.2019 6.89096 11.0825 6.52021 10.8675V10.9027C6.52021 12.2248 7.4154 13.3632 8.65968 13.625C8.26728 13.7367 7.85533 13.7532 7.45553 13.6729C7.80516 14.8042 8.80597 15.5791 9.94727 15.6016C9.00244 16.3743 7.83579 16.7939 6.63482 16.7928C6.42251 16.7923 6.21073 16.7791 6 16.7527C7.21999 17.5677 8.63908 18 10.0883 17.9978V18C14.9941 18 17.677 13.7675 17.677 10.0975Z" fill="#949494"/>
</g>
<defs>
<clipPath id="clip0_2723_1400">
<rect width="40" height="40" fill="white"/>
</clipPath>
</defs>
</svg>
